HIERARCHY
ROOT root
{
	OFFSET 0.000000 0.000000 0.000000
	CHANNELS 6 Xposition Yposition Zposition Zrotation Yrotation Xrotation
	JOINT lhip
	{
		OFFSET 0.058581 -0.082280 -0.017664
		CHANNELS 3 Zrotation Yrotation Xrotation
		JOINT lknee
		{
			OFFSET 0.043451 -0.386469 0.008037
			CHANNELS 3 Zrotation Yrotation Xrotation
			JOINT lankle
			{
				OFFSET -0.014790 -0.426874 -0.037428
				CHANNELS 3 Zrotation Yrotation Xrotation
				JOINT ltoe
				{
					OFFSET 0.041054 -0.060286 0.122042
					CHANNELS 3 Zrotation Yrotation Xrotation
					End Site
					{
						OFFSET 0.000000 0.000000 0.000000
					}
				}
			}
		}
	}
	JOINT rhip
	{
		OFFSET -0.060310 -0.090513 -0.013543
		CHANNELS 3 Zrotation Yrotation Xrotation
		JOINT rknee
		{
			OFFSET -0.043257 -0.383688 -0.004843
			CHANNELS 3 Zrotation Yrotation Xrotation
			JOINT rankle
			{
				OFFSET 0.019056 -0.420046 -0.034562
				CHANNELS 3 Zrotation Yrotation Xrotation
				JOINT rtoe
				{
					OFFSET -0.034840 -0.062106 0.130323
					CHANNELS 3 Zrotation Yrotation Xrotation
					End Site
					{
						OFFSET 0.000000 0.000000 0.000000
					}
				}
			}
		}
	}
	JOINT lowerback
	{
		OFFSET 0.004439 0.124404 -0.038385
		CHANNELS 3 Zrotation Yrotation Xrotation
		JOINT upperback
		{
			OFFSET 0.004488 0.137956 0.026820
			CHANNELS 3 Zrotation Yrotation Xrotation
			JOINT chest
			{
				OFFSET -0.002265 0.056032 0.002855
				CHANNELS 3 Zrotation Yrotation Xrotation
				JOINT lowerneck
				{
					OFFSET -0.013390 0.211636 -0.033468
					CHANNELS 3 Zrotation Yrotation Xrotation
					JOINT upperneck
					{
						OFFSET 0.010113 0.088937 0.050410
						CHANNELS 3 Zrotation Yrotation Xrotation
						End Site
						{
							OFFSET 0.000000 0.000000 0.000000
						}
					}
				}
				JOINT lclavicle
				{
					OFFSET 0.071702 0.114000 -0.018898
					CHANNELS 3 Zrotation Yrotation Xrotation
					JOINT lshoulder
					{
						OFFSET 0.122921 0.045205 -0.019046
						CHANNELS 3 Zrotation Yrotation Xrotation
						JOINT lelbow
						{
							OFFSET 0.255332 -0.015649 -0.022946
							CHANNELS 3 Zrotation Yrotation Xrotation
							JOINT lwrist
							{
								OFFSET 0.265709 0.012698 -0.007375
								CHANNELS 3 Zrotation Yrotation Xrotation
								End Site
								{
									OFFSET 0.000000 0.000000 0.000000
								}
							}
						}
					}
				}
				JOINT rclavicle
				{
					OFFSET -0.082954 0.112472 -0.023707
					CHANNELS 3 Zrotation Yrotation Xrotation
					JOINT rshoulder
					{
						OFFSET -0.113228 0.046853 -0.008472
						CHANNELS 3 Zrotation Yrotation Xrotation
						JOINT relbow
						{
							OFFSET -0.260127 -0.014369 -0.031269
							CHANNELS 3 Zrotation Yrotation Xrotation
							JOINT rwrist
							{
								OFFSET -0.269108 0.006794 -0.006027
								CHANNELS 3 Zrotation Yrotation Xrotation
								End Site
								{
									OFFSET 0.000000 0.000000 0.000000
								}
							}
						}
					}
				}
			}
		}
	}
}
MOTION
Frames: 7
Frame Time: 0.033333
-2.078021 0.696456 0.984719 84.673127 -1.544649 79.297014 1.840404 -5.462308 -8.377363 -4.299889 -12.606218 14.411779 -3.942512 0.901524 -6.284543 0.000000 -0.000000 0.000000 6.849357 -4.531781 6.316286 -4.869113 -7.089404 8.865891 -2.700225 -14.055180 -15.700029 0.000000 -0.000000 0.000000 -2.818684 5.042607 16.082004 -0.702282 -2.816089 8.266072 1.950681 -0.043092 1.051487 -3.455793 4.724966 -4.356789 0.363336 -0.106553 -8.387734 -23.116481 -13.822969 2.497525 -55.770482 -13.436641 11.895023 5.404598 -23.494840 8.438616 -0.254866 -1.773660 -10.824714 20.520314 16.096036 3.589596 59.370712 7.568059 18.958787 -2.336594 27.043875 16.004491 2.306582 0.756384 -4.253603 
-2.078659 0.696431 0.984722 84.275109 -1.600571 79.461393 1.954479 -5.333627 -8.460563 -4.309054 -12.344888 14.248500 -3.899125 0.961295 -6.174951 0.000000 -0.000000 0.000000 6.876466 -4.389766 6.130891 -4.879742 -6.896273 8.810120 -2.834502 -14.045121 -15.717054 0.000000 -0.000000 0.000000 -2.823090 4.931998 15.580689 -0.696686 -2.767515 8.603100 1.900723 0.051566 1.049210 -3.524368 4.916811 -4.299579 0.249968 -0.038166 -8.504641 -23.020889 -13.917105 2.429643 -55.830853 -13.688121 12.021316 5.404518 -23.679180 8.489708 -0.010119 -1.534638 -10.755372 20.519202 16.065288 3.564349 59.485680 7.897166 19.039568 -2.226453 26.849589 16.281548 2.232091 0.662794 -4.237750 
-2.079451 0.696352 0.984828 83.905937 -1.669163 79.461744 1.978014 -5.230453 -8.369117 -4.251521 -12.177582 14.046075 -3.879943 1.020153 -5.988919 0.000000 -0.000000 0.000000 6.776386 -4.419977 6.056943 -4.863751 -6.883284 8.862017 -2.752895 -13.690394 -15.645552 0.000000 -0.000000 0.000000 -2.744637 4.953777 15.639175 -0.749400 -2.736764 8.503374 1.911103 0.040651 1.024185 -3.791877 5.078490 -4.171703 0.193430 0.161656 -8.520769 -22.906905 -14.165407 2.533057 -55.911928 -13.775774 11.970110 5.648496 -23.872387 8.302459 0.259268 -1.451907 -10.617586 20.431975 16.274841 3.774277 59.780169 8.018627 18.926191 -2.400030 26.783218 16.176007 2.231130 0.447450 -4.145326 
-2.080186 0.696404 0.985148 83.680148 -1.748916 79.500453 1.996026 -5.187354 -8.238889 -4.189562 -12.084401 13.670307 -3.907832 1.020784 -5.877036 0.000000 -0.000000 0.000000 6.687393 -4.324289 6.100971 -4.748771 -6.733501 8.598209 -2.696076 -13.567681 -15.510544 0.000000 -0.000000 0.000000 -2.692838 4.897571 15.797915 -0.795249 -2.749460 8.197525 1.906812 0.040706 0.996199 -3.933955 5.229429 -3.999357 0.186051 0.285208 -8.448014 -22.858727 -14.062680 2.463792 -56.042036 -13.833386 11.964261 5.697795 -23.756655 8.327033 -0.018774 -1.461704 -10.743693 20.456643 16.235618 3.805748 59.968487 8.049602 18.977653 -2.413229 26.776270 16.096753 2.512917 0.214743 -4.226724 
-2.080517 0.696441 0.985370 83.596321 -1.824416 79.574437 1.924957 -5.113266 -8.084081 -4.061054 -12.150309 13.223747 -3.771551 1.077087 -5.804897 0.000000 -0.000000 0.000000 6.569215 -4.428334 6.047680 -4.713486 -6.712164 8.488519 -2.642937 -13.460256 -15.342714 0.000000 -0.000000 0.000000 -2.704948 4.816173 15.684340 -0.814364 -2.707481 8.186311 1.942379 0.077338 0.907907 -4.044274 5.069168 -3.594239 0.095676 0.498709 -8.617561 -22.943557 -13.970296 2.422304 -56.082084 -13.905409 11.946612 5.821735 -23.709291 8.239902 0.438207 -1.441076 -10.789893 20.363511 16.163293 3.831495 60.035499 7.925868 19.028023 -2.308167 26.718474 16.248463 2.135872 0.323966 -3.959498 
-2.080918 0.696452 0.985396 83.548918 -1.901810 79.783175 1.856932 -5.066322 -8.229698 -3.924668 -12.041707 13.003503 -3.870968 1.035362 -5.609811 0.000000 -0.000000 0.000000 6.544288 -4.340422 5.791974 -4.756964 -6.778236 8.465986 -2.734409 -13.432689 -15.326839 0.000000 -0.000000 0.000000 -2.708651 4.582721 15.739931 -0.879363 -2.780750 7.926303 1.984883 -0.024059 0.690497 -4.311682 5.196059 -3.530897 -0.039687 0.828289 -8.693105 -22.838357 -13.889152 2.644842 -56.270287 -13.608504 11.806433 6.095650 -23.863889 8.031852 0.304713 -1.303724 -11.225269 20.213816 16.279331 4.105260 60.115472 8.014505 19.038537 -2.183568 26.629846 16.327049 1.977612 0.274278 -4.249979 
-2.081306 0.696443 0.985616 83.585289 -1.974094 79.894441 1.754224 -5.050054 -8.198437 -3.752657 -12.078431 12.635469 -3.894116 1.060558 -5.393859 0.000000 -0.000000 0.000000 6.446011 -4.346910 5.622711 -4.741553 -6.788189 8.546629 -2.711135 -13.438855 -15.219636 0.000000 -0.000000 0.000000 -2.674623 4.496143 15.454307 -0.891218 -2.845190 8.098659 1.960296 -0.072374 0.702180 -4.621287 5.302079 -3.458493 -0.244657 1.033702 -8.993424 -22.722635 -13.866640 2.740080 -56.287843 -13.584043 11.708439 6.159565 -23.803649 8.072670 0.487264 -1.438085 -11.143746 20.117400 16.215255 4.134537 60.030812 7.992464 18.974233 -1.991893 26.758519 16.527932 1.698622 0.441538 -4.100984 
